<svg id="wave" version="1.1" xmlns="http://www.w3.org/2000/svg" xmlns:xlink="http://www.w3.org/1999/xlink" width="640" height="480">
        <desc ivinci="yes" version="4.6" gridstep="20" showgrid="no" snaptogrid="no" codeplatform="0"></desc>
        <g id="Layer1" name="Layer 1" opacity="1">
            <g id="Shape1">
                <desc shapeid="1" type="0" basicinfo-basictype="0" basicinfo-roundedrectradius="12" basicinfo-polygonsides="6" basicinfo-starpoints="5" bounding="rect(-279.878,-31.2762,559.756,62.5526)" text="" font-familyname="Helvetica" font-pixelsize="20" font-bold="0" font-underline="0" font-alignment="1" strokestyle="0" markerstart="0" markerend="0" shadowenabled="0" shadowoffsetx="0" shadowoffsety="2" shadowblur="4" shadowopacity="160" blurenabled="0" blurradius="4" transform="matrix(1.03603,0,0.00804184,0.959194,290.713,50.5)" pers-center="0,0" pers-size="0,0" pers-start="0,0" pers-end="0,0" locked="0" mesh="" flag=""></desc>
                <path id="shapePath1" d="M0.985291,78.3775 C16.5257,78.3775 42.8604,82.1398 63.1471,78.3775 C78.2678,75.5732 93.5915,69.3044 104.427,59.1936 C124.987,40.0097 130.696,36.5417 145.708,40.0097 C164.697,44.3964 166.589,59.1936 187.471,78.3775 C198.476,88.4883 213.307,59.1936 228.751,59.1936 C244.195,59.1936 256.058,83.6879 270.353,78.3775 C297.476,68.3016 303.165,25.286 332.032,20.8258 C356.565,17.0354 373.062,47.3313 394.516,59.1936 C407.821,66.5503 420.673,78.3775 436.118,78.3775 C457.959,78.3775 496.919,59.1936 518.76,59.1936 C534.205,59.1936 560.189,78.3775 580.909,78.3775 " style="stroke:none;fill-rule:evenodd;fill:#fb0044;fill-opacity:0.878431;"></path>
            </g>
        </g>
        <g id="Layer2" name="Layer 2" opacity="1">
            <g id="Shape2">
                <desc shapeid="2" type="0" basicinfo-basictype="0" basicinfo-roundedrectradius="12" basicinfo-polygonsides="6" basicinfo-starpoints="5" bounding="rect(-269.999,-35.2583,539.998,70.5166)" text="" font-familyname="Helvetica" font-pixelsize="20" font-bold="0" font-underline="0" font-alignment="1" strokestyle="0" markerstart="0" markerend="0" shadowenabled="0" shadowoffsetx="0" shadowoffsety="2" shadowblur="4" shadowopacity="160" blurenabled="0" blurradius="4" transform="matrix(1.03704,0,0,0.911372,280.5,48.1757)" pers-center="0,0" pers-size="0,0" pers-start="0,0" pers-end="0,0" locked="0" mesh="" flag=""></desc>
                <path id="shapePath2" d="M0.500061,78.2669 C16.0556,78.2669 41.9815,78.2669 62.7222,78.2669 C109.1,78.2669 124.944,41.812 166.426,23.5845 C203.528,7.28141 207.907,60.0394 228.648,78.2669 C246.274,93.7572 268.203,16.0423 292.78,16.0423 C313.816,16.0423 311.611,20.5 353.093,60.0394 C372.975,78.9906 394.574,78.2669 415.315,78.2669 C437.177,78.2669 476.415,60.0395 498.278,60.0394 C520.14,60.0395 544.944,73.71 560.5,78.2669 " style="stroke:none;fill-rule:evenodd;fill:url(#radialGradientFill2);fill-opacity:1;"></path><defs><radialGradient id="radialGradientFill2" gradientUnits="userSpaceOnUse" cx="285.313" cy="39.062" r="291.115" fx="-188.613" fy="51.8212"><stop offset="0" stop-color="#ffffff" stop-opacity="1"></stop><stop offset="0.103307" stop-color="#097afc" stop-opacity="0.878431"></stop></radialGradient></defs>
            </g>
        </g>
        <g id="Layer3" name="Layer 3" opacity="1">
            <g id="Shape3">
                <desc shapeid="3" type="0" basicinfo-basictype="0" basicinfo-roundedrectradius="12" basicinfo-polygonsides="6" basicinfo-starpoints="5" bounding="rect(-271.999,-21.1985,543.998,42.3969)" text="" font-familyname="Helvetica" font-pixelsize="20" font-bold="0" font-underline="0" font-alignment="1" strokestyle="0" markerstart="0" markerend="0" shadowenabled="0" shadowoffsetx="0" shadowoffsety="2" shadowblur="4" shadowopacity="160" blurenabled="0" blurradius="4" transform="matrix(1.03676,0,0,0.943465,282.498,60.5)" pers-center="0,0" pers-size="0,0" pers-start="0,0" pers-end="0,0" locked="0" mesh="" flag=""></desc>
                <path id="shapePath3" d="M4.64236,78.466 C-16.093,78.466 46.732,83.0425 66.8482,78.466 C102.958,70.251 133.304,40.7274 170.525,40.7274 C195.445,40.7274 208.149,74.7378 232.731,78.466 C254.29,81.7359 273.08,59.5967 294.937,59.5967 C310.392,59.5967 321.162,80.7782 336.407,78.466 C366.897,73.8417 388.859,45.3517 419.348,40.7274 C434.593,38.4153 467.204,54.3733 481.554,59.5967 C501.848,66.9837 522.556,73.642 543.76,78.466 C550.466,79.9915 564.495,78.466 564.495,78.466 C564.495,78.466 184.348,78.466 4.64236,78.466 Z" style="stroke:none;fill-rule:evenodd;fill:#09fc83;fill-opacity:1;"></path>
            </g>
        </g>
        <g id="Layer4" name="Layer 4" opacity="1">
            <g id="Shape4">
                <desc shapeid="4" type="0" basicinfo-basictype="0" basicinfo-roundedrectradius="12" basicinfo-polygonsides="6" basicinfo-starpoints="5" bounding="rect(-260.001,-22.4804,520.002,44.9608)" text="" font-familyname="Helvetica" font-pixelsize="20" font-bold="0" font-underline="0" font-alignment="1" strokestyle="0" markerstart="0" markerend="0" shadowenabled="0" shadowoffsetx="0" shadowoffsety="2" shadowblur="4" shadowopacity="160" blurenabled="0" blurradius="4" transform="matrix(1.07692,0,0,0.889664,280.5,60.5)" pers-center="0,0" pers-size="0,0" pers-start="0,0" pers-end="0,0" locked="0" mesh="" flag=""></desc>
                <path id="shapePath4" d="M0.499969,79.3816 C0.499969,79.3816 43.7934,81.898 65.1154,79.3816 C94.4196,75.9232 121.667,61.5883 151.269,61.5883 C173.973,61.5883 193.181,79.3816 215.885,79.3816 C231.938,79.3816 242.908,61.5883 258.962,61.5883 C275.015,61.5883 286.464,82.5982 302.038,79.3816 C321.739,75.3129 325.203,47.085 345.115,43.795 C367.378,40.1167 387.027,61.5883 409.731,61.5883 C432.434,61.5883 458.292,30.5327 474.346,43.795 C495.885,61.5883 560.5,79.3816 560.5,79.3816 C560.5,79.3816 0.499969,79.3816 0.499969,79.3816 Z" style="stroke:none;fill-rule:evenodd;fill:#fcfafc;fill-opacity:0.768627;"></path>
            </g>
        </g>
    </svg>